<svg width="1060.1px" height="280.4px" xmlns="http://www.w3.org/2000/svg" viewBox="-280.04999999999995 -65.19999999999999 1060.1 280.4" style="background: rgb(255, 255, 255);" preserveAspectRatio="xMidYMid"><defs>
  <filter id="editing-scratch" x="-100%" y="-100%" width="300%" height="300%">
    <!-- COLOR -->
    <feFlood flood-color="#ff0000" flood-opacity="0.75" result="COLOR-blu"></feFlood>
    <feFlood flood-color="#000000" flood-opacity="0.4" result="COLOR-red"></feFlood>
    <!-- COLOR END -->

    <!-- Texture -->
    <feTurbulence baseFrequency=".05" type="fractalNoise" numOctaves="3" seed="0" result="Texture_10"></feTurbulence>
    <feColorMatrix type="matrix" values="0 0 0 0 0,
    0 0 0 0 0,
    0 0 0 0 0,
    0 0 0 -2.1 1.1" in="Texture_10" result="Texture_20"></feColorMatrix>

    <feColorMatrix result="Texture_30" type="matrix" values="0 0 0 0 0,
    0 0 0 0 0,
    0 0 0 0 0,
    0 0 0 -1.7 1.8" in="Texture_10"></feColorMatrix>
    <!-- Texture -->

    <!-- FILL -->
    <feOffset dx="-3" dy="4" in="SourceAlpha" result="FILL_10"></feOffset>
    <feDisplacementMap scale="17" in="FILL_10" in2="Texture_10" result="FILL_20"></feDisplacementMap>
    <feComposite operator="in" in="Texture_30" in2="FILL_20" result="FILL_40"></feComposite>
    <feComposite operator="in" in="COLOR-blu" in2="FILL_40" result="FILL_50"></feComposite>
    <!-- FILL END-->

    <!-- OUTLINE -->
    <feMorphology operator="dilate" radius="3" in="SourceGraphic" result="OUTLINE_10"></feMorphology>
    <feComposite operator="out" in="OUTLINE_10" in2="SourceGraphic" result="OUTLINE_20"></feComposite>
    <feDisplacementMap scale="7" in="OUTLINE_20" in2="Texture_10" result="OUTLINE_30"></feDisplacementMap>
    <feComposite operator="arithmetic" k2="-1" k3="1" in="Texture_20" in2="OUTLINE_30" result="OUTLINE_40"></feComposite>
    <!-- OUTLINE END-->

    <!-- BEVEL OUTLINE -->
    <feConvolveMatrix order="8,8" divisor="1" kernelMatrix="1 0 0 0 0 0 0 0 0 1 0 0 0 0 0 0 0 0 1 0 0 0 0 0 0 0 0 1 0 0 0 0 0 0 0 0 1 0 0 0 0 0 0 0 0 1 0 0 0 0 0 0 0 0 1 0 0 0 0 0 0 0 0 1 " in="SourceGraphic" result="BEVEL_10"></feConvolveMatrix>
    <feMorphology operator="dilate" radius="2" in="BEVEL_10" result="BEVEL_20"></feMorphology>
    <feComposite operator="out" in="BEVEL_20" in2="BEVEL_10" result="BEVEL_30"></feComposite>
    <feDisplacementMap scale="7" in="BEVEL_30" in2="Texture_10" result="BEVEL_40"></feDisplacementMap>
    <feComposite operator="arithmetic" k2="-1" k3="1" in="Texture_20" in2="BEVEL_40" result="BEVEL_50"></feComposite>
    <feOffset dx="-7" dy="-7" in="BEVEL_50" result="BEVEL_60"></feOffset>
    <feComposite operator="out" in="BEVEL_60" in2="OUTLINE_10" result="BEVEL_70"></feComposite>
    <!-- BEVEL OUTLINE END -->

    <!-- BEVEL FILL -->
    <feOffset dx="-9" dy="-9" in="BEVEL_10" result="BEVEL-FILL_10"></feOffset>
    <feComposite operator="out" in="BEVEL-FILL_10" in2="OUTLINE_10" result="BEVEL-FILL_20"></feComposite>
    <feDisplacementMap scale="17" in="BEVEL-FILL_20" in2="Texture_10" result="BEVEL-FILL_30"></feDisplacementMap>
    <feComposite operator="in" in="COLOR-red" in2="BEVEL-FILL_30" result="BEVEL-FILL_50"></feComposite> <!-- -->
    <!-- BEVEL FILL END-->

    <feMerge result="merge2">
     <feMergeNode in="BEVEL-FILL_50"></feMergeNode>
     <feMergeNode in="BEVEL_70"></feMergeNode>
     <feMergeNode in="FILL_50"></feMergeNode>
      <feMergeNode in="OUTLINE_40"></feMergeNode>
    </feMerge>
  </filter>
</defs>
<g filter="url(#editing-scratch)"><g transform="translate(-133.02499961853027, 129.1650047302246)"><path d="M4.86-20.40L4.86-20.40L4.86-20.40Q5.53-22.64 6.13-25.55L6.13-25.55L6.13-25.55Q6.72-28.46 6.72-31.45L6.72-31.45L6.72-31.45Q6.72-33.92 6.50-36.61L6.50-36.61L6.50-36.61Q6.28-39.30 5.90-41.72L5.90-41.72L5.90-41.72Q5.53-44.15 5.12-46.09L5.12-46.09L5.12-46.09Q4.71-48.04 4.26-48.93L4.26-48.93L4.26-48.93Q5.60-48.48 7.55-48.15L7.55-48.15L7.55-48.15Q9.49-47.81 11.80-47.55L11.80-47.55L11.80-47.55Q14.12-47.29 16.58-47.18L16.58-47.18L16.58-47.18Q19.05-47.07 21.44-47.07L21.44-47.07L21.44-47.07Q23.68-47.07 26.22-47.14L26.22-47.14L26.22-47.14Q28.76-47.21 31.34-47.44L31.34-47.44L31.34-47.44Q33.92-47.66 36.38-48.04L36.38-48.04L36.38-48.04Q38.85-48.41 40.86-48.93L40.86-48.93L40.86-48.93Q40.42-46.92 40.16-44.64L40.16-44.64L40.16-44.64Q39.89-42.36 39.89-39.52L39.89-39.52L39.89-39.52Q39.89-38.03 40.01-36.31L40.01-36.31L40.01-36.31Q40.12-34.59 40.34-32.91L40.34-32.91L40.34-32.91Q40.57-31.23 40.86-29.66L40.86-29.66L40.86-29.66Q41.16-28.09 41.54-26.89L41.54-26.89L41.54-26.89Q38.40-26.37 36.87-24.62L36.87-24.62L36.87-24.62Q35.34-22.86 35.34-20.69L35.34-20.69L35.34-20.69Q35.34-19.13 37.84-17.78L37.84-17.78L37.84-17.78Q40.34-16.44 45.57-16.44L45.57-16.44L45.57-16.44Q49.53-16.44 52.37-17.97L52.37-17.97L52.37-17.97Q55.21-19.50 57.08-22.26L57.08-22.26L57.08-22.26Q58.94-25.03 59.80-28.95L59.80-28.95L59.80-28.95Q60.66-32.87 60.66-37.73L60.66-37.73L60.66-37.73Q60.66-45.42 59.39-49.79L59.39-49.79L59.39-49.79Q58.12-54.16 55.51-54.91L55.51-54.91L55.51-54.91Q56.85-55.36 57.90-56.29L57.90-56.29L57.90-56.29Q58.94-57.23 59.69-59.06L59.69-59.06L59.69-59.06Q60.44-60.89 60.85-63.80L60.85-63.80L60.85-63.80Q61.26-66.71 61.26-71.05L61.26-71.05L61.26-71.05Q61.26-74.18 60.85-76.50L60.85-76.50L60.85-76.50Q60.44-78.82 59.84-80.68L59.84-80.68L59.84-80.68Q59.02-83.07 57.49-84.53L57.49-84.53L57.49-84.53Q55.96-85.99 52.89-86.81L52.89-86.81L52.89-86.81Q49.83-87.63 44.79-87.89L44.79-87.89L44.79-87.89Q39.74-88.15 31.97-88.15L31.97-88.15L31.97-88.15Q32.35-89.95 32.72-92.30L32.72-92.30L32.72-92.30Q33.10-94.65 33.10-97.27L33.10-97.27L33.10-97.27Q33.10-100.03 32.80-102.87L32.80-102.87L32.80-102.87Q32.50-105.71 31.97-107.58L31.97-107.58L31.97-107.58Q33.69-107.06 37.65-106.57L37.65-106.57L37.65-106.57Q41.61-106.08 46.73-105.75L46.73-105.75L46.73-105.75Q51.85-105.41 57.64-105.19L57.64-105.19L57.64-105.19Q63.43-104.96 68.81-104.96L68.81-104.96L68.81-104.96Q74.26-104.96 79.56-105.19L79.56-105.19L79.56-105.19Q84.87-105.41 89.39-105.75L89.39-105.75L89.39-105.75Q93.91-106.08 97.38-106.57L97.38-106.57L97.38-106.57Q100.85-107.06 102.57-107.58L102.57-107.58L102.57-107.58Q102.05-105.71 101.75-102.87L101.75-102.87L101.75-102.87Q101.45-100.03 101.45-97.27L101.45-97.27L101.45-97.27Q101.45-94.65 101.83-92.30L101.83-92.30L101.83-92.30Q102.20-89.95 102.57-88.15L102.57-88.15L101.08-88.15L101.08-88.15Q98.39-88.15 96.52-87.78L96.52-87.78L96.52-87.78Q94.65-87.41 93.50-86.32L93.50-86.32L93.50-86.32Q92.34-85.24 91.78-83.37L91.78-83.37L91.78-83.37Q91.22-81.51 91.22-78.52L91.22-78.52L91.22-78.52Q91.22-71.64 91.55-67.27L91.55-67.27L91.55-67.27Q91.89-62.90 92.56-60.29L92.56-60.29L92.56-60.29Q93.23-57.67 94.21-56.52L94.21-56.52L94.21-56.52Q95.18-55.36 96.52-54.91L96.52-54.91L96.52-54.91Q95.48-54.91 94.65-53.23L94.65-53.23L94.65-53.23Q93.83-51.55 93.27-48.82L93.27-48.82L93.27-48.82Q92.71-46.09 92.38-42.66L92.38-42.66L92.38-42.66Q92.04-39.22 92.04-35.78L92.04-35.78L92.04-35.78Q92.04-33.10 92.23-30.59L92.23-30.59L92.23-30.59Q92.41-28.09 92.86-25.96L92.86-25.96L92.86-25.96Q93.31-23.83 93.94-22.26L93.94-22.26L93.94-22.26Q94.58-20.69 95.48-20.02L95.48-20.02L95.48-20.02Q92.11-19.57 88.98-17.59L88.98-17.59L88.98-17.59Q85.84-15.61 83.30-12.70L83.30-12.70L83.30-12.70Q80.76-9.79 78.97-6.28L78.97-6.28L78.97-6.28Q77.17-2.76 76.43 0.75L76.43 0.75L76.43 0.75Q75.38 0.07 72.58-0.41L72.58-0.41L72.58-0.41Q69.78-0.90 66.00-1.23L66.00-1.23L66.00-1.23Q62.23-1.57 57.90-1.72L57.90-1.72L57.90-1.72Q53.56-1.87 49.53-1.87L49.53-1.87L49.53-1.87Q40.72-1.87 34.55-1.16L34.55-1.16L34.55-1.16Q28.39-0.45 25.40 0.75L25.40 0.75L25.40 0.75Q25.25-2.61 24.13-6.31L24.13-6.31L24.13-6.31Q23.01-10.01 20.58-13.11L20.58-13.11L20.58-13.11Q18.15-16.21 14.31-18.27L14.31-18.27L14.31-18.27Q10.46-20.32 4.86-20.40ZM102.80 0L102.80 0L102.80 0Q103.25-1.87 103.47-4.59L103.47-4.59L103.47-4.59Q103.69-7.32 103.69-10.23L103.69-10.23L103.69-10.23Q103.69-12.92 103.51-15.28L103.51-15.28L103.51-15.28Q103.32-17.63 102.95-19.42L102.95-19.42L102.95-19.42Q106.76-19.57 109.45-20.81L109.45-20.81L109.45-20.81Q112.14-22.04 113.85-23.53L113.85-23.53L113.85-23.53Q115.65-26.30 117.51-29.73L117.51-29.73L117.51-29.73Q119.38-33.17 120.91-36.79L120.91-36.79L120.91-36.79Q122.44-40.42 123.42-44.04L123.42-44.04L123.42-44.04Q124.39-47.66 124.39-50.80L124.39-50.80L124.39-50.80Q124.39-52.07 124.01-53.34L124.01-53.34L124.01-53.34Q123.64-54.61 122.74-54.91L122.74-54.91L122.74-54.91Q124.98-55.51 127.23-58.20L127.23-58.20L127.23-58.20Q129.47-60.89 131.56-64.85L131.56-64.85L131.56-64.85Q133.65-68.81 135.44-73.66L135.44-73.66L135.44-73.66Q137.24-78.52 138.58-83.49L138.58-83.49L138.58-83.49Q139.93-88.45 140.67-93.16L140.67-93.16L140.67-93.16Q141.42-97.87 141.42-101.53L141.42-101.53L141.42-101.53Q141.42-102.80 141.27-103.99L141.27-103.99L141.27-103.99Q141.12-105.19 141.12-106.01L141.12-106.01L141.12-106.01Q141.12-106.38 141.16-106.68L141.16-106.68L141.16-106.68Q141.20-106.98 141.20-107.58L141.20-107.58L141.20-107.58Q142.91-106.91 145.49-106.42L145.49-106.42L145.49-106.42Q148.07-105.93 151.28-105.60L151.28-105.60L151.28-105.60Q154.49-105.26 158.15-105.11L158.15-105.11L158.15-105.11Q161.82-104.96 165.77-104.96L165.77-104.96L165.77-104.96Q169.21-104.96 172.80-105.11L172.80-105.11L172.80-105.11Q176.38-105.26 179.75-105.60L179.75-105.60L179.75-105.60Q183.11-105.93 186.02-106.42L186.02-106.42L186.02-106.42Q188.93-106.91 190.88-107.58L190.88-107.58L190.88-107.28L190.88-106.61L190.88-106.61Q190.88-105.79 190.69-104.55L190.69-104.55L190.69-104.55Q190.50-103.32 190.50-101.83L190.50-101.83L190.50-101.83Q190.50-98.39 191.14-93.76L191.14-93.76L191.14-93.76Q191.77-89.13 192.89-84.16L192.89-84.16L192.89-84.16Q194.01-79.19 195.62-74.30L195.62-74.30L195.62-74.30Q197.23-69.40 199.17-65.33L199.17-65.33L199.17-65.33Q201.11-61.26 203.35-58.46L203.35-58.46L203.35-58.46Q205.59-55.66 208.06-54.91L208.06-54.91L208.06-54.91Q207.01-54.54 206.60-53.45L206.60-53.45L206.60-53.45Q206.19-52.37 206.19-50.80L206.19-50.80L206.19-50.80Q206.19-47.66 207.13-44.04L207.13-44.04L207.13-44.04Q208.06-40.42 209.59-36.79L209.59-36.79L209.59-36.79Q211.12-33.17 212.95-29.81L212.95-29.81L212.95-29.81Q214.78-26.45 216.58-23.76L216.58-23.76L216.58-23.76Q217.70-23.08 219.27-22.34L219.27-22.34L219.27-22.34Q220.83-21.59 222.55-20.92L222.55-20.92L222.55-20.92Q224.27-20.25 225.99-19.83L225.99-19.83L225.99-19.83Q227.71-19.42 229.20-19.42L229.20-19.42L229.20-19.42Q228.83-17.63 228.64-15.28L228.64-15.28L228.64-15.28Q228.45-12.92 228.45-10.23L228.45-10.23L228.45-10.23Q228.45-7.32 228.68-4.59L228.68-4.59L228.68-4.59Q228.90-1.87 229.35 0L229.35 0L229.35 0Q226.66-0.30 223.15-0.64L223.15-0.64L223.15-0.64Q219.64-0.97 215.60-1.23L215.60-1.23L215.60-1.23Q211.57-1.49 207.24-1.68L207.24-1.68L207.24-1.68Q202.90-1.87 198.57-1.87L198.57-1.87L198.57-1.87Q190.65-1.87 183.52-1.38L183.52-1.38L183.52-1.38Q176.38-0.90 171.45 0L171.45 0L171.45 0Q171.68-1.27 171.86-4.00L171.86-4.00L171.86-4.00Q172.05-6.72 172.05-10.09L172.05-10.09L172.05-10.09Q172.05-11.50 171.98-12.96L171.98-12.96L171.98-12.96Q171.90-14.42 171.83-15.69L171.83-15.69L171.83-15.69Q171.75-16.96 171.64-17.97L171.64-17.97L171.64-17.97Q171.53-18.98 171.45-19.42L171.45-19.42L171.45-19.42Q172.80-19.42 174.29-19.54L174.29-19.54L174.29-19.54Q175.79-19.65 177.24-19.95L177.24-19.95L177.24-19.95Q178.70-20.25 180.04-20.77L180.04-20.77L180.04-20.77Q181.39-21.29 182.43-22.19L182.43-22.19L182.43-22.19Q182.29-25.18 181.46-27.31L181.46-27.31L181.46-27.31Q180.64-29.43 178.36-30.85L178.36-30.85L178.36-30.85Q176.08-32.27 172.01-32.95L172.01-32.95L172.01-32.95Q167.94-33.62 161.37-33.62L161.37-33.62L161.37-33.62Q155.47-33.62 151.54-33.17L151.54-33.17L151.54-33.17Q147.62-32.72 145.19-31.49L145.19-31.49L145.19-31.49Q142.77-30.26 141.61-28.05L141.61-28.05L141.61-28.05Q140.45-25.85 140.15-22.26L140.15-22.26L140.15-22.26Q141.27-21.37 142.84-20.84L142.84-20.84L142.84-20.84Q144.41-20.32 146.09-19.98L146.09-19.98L146.09-19.98Q147.77-19.65 149.45-19.54L149.45-19.54L149.45-19.54Q151.13-19.42 152.48-19.42L152.48-19.42L152.48-19.42Q152.33-18.98 152.22-18.00L152.22-18.00L152.22-18.00Q152.10-17.03 152.03-15.73L152.03-15.73L152.03-15.73Q151.95-14.42 151.92-12.92L151.92-12.92L151.92-12.92Q151.88-11.43 151.88-10.09L151.88-10.09L151.88-10.09Q151.88-6.72 152.07-4.00L152.07-4.00L152.07-4.00Q152.25-1.27 152.48 0L152.48 0L152.48 0Q146.80-1.05 140.97-1.46L140.97-1.46L140.97-1.46Q135.15-1.87 129.09-1.87L129.09-1.87L129.09-1.87Q122.07-1.87 115.46-1.46L115.46-1.46L115.46-1.46Q108.85-1.05 102.80 0ZM150.61-55.51L150.61-55.51L150.61-55.51Q150.61-53.34 151.09-51.92L151.09-51.92L151.09-51.92Q151.58-50.50 152.81-49.68L152.81-49.68L152.81-49.68Q154.05-48.86 156.18-48.52L156.18-48.52L156.18-48.52Q158.30-48.19 161.59-48.19L161.59-48.19L161.59-48.19Q164.88-48.19 167.01-48.52L167.01-48.52L167.01-48.52Q169.14-48.86 170.37-49.68L170.37-49.68L170.37-49.68Q171.60-50.50 172.09-51.92L172.09-51.92L172.09-51.92Q172.57-53.34 172.57-55.51L172.57-55.51L172.57-55.51Q172.57-58.12 171.23-61.93L171.23-61.93L171.23-61.93Q169.88-65.74 168.09-69.93L168.09-69.93L168.09-69.93Q166.30-74.11 164.43-78.29L164.43-78.29L164.43-78.29Q162.56-82.48 161.59-85.84L161.59-85.84L161.59-85.84Q160.47-82.48 158.60-78.29L158.60-78.29L158.60-78.29Q156.74-74.11 154.98-69.93L154.98-69.93L154.98-69.93Q153.22-65.74 151.92-61.93L151.92-61.93L151.92-61.93Q150.61-58.12 150.61-55.51ZM237.19 0L237.19 0L237.19 0Q237.64-1.87 237.98-4.52L237.98-4.52L237.98-4.52Q238.32-7.17 238.32-10.01L238.32-10.01L238.32-10.01Q238.32-12.63 237.94-15.13L237.94-15.13L237.94-15.13Q237.57-17.63 237.19-19.42L237.19-19.42L237.19-19.42Q240.56-19.42 243.10-19.95L243.10-19.95L243.10-19.95Q245.64-20.47 247.35-21.70L247.35-21.70L247.35-21.70Q249.07-22.94 249.93-25.06L249.93-25.06L249.93-25.06Q250.79-27.19 250.79-30.41L250.79-30.41L250.79-30.41Q250.79-37.20 250.46-41.76L250.46-41.76L250.46-41.76Q250.12-46.32 249.48-49.12L249.48-49.12L249.48-49.12Q248.85-51.92 247.88-53.23L247.88-53.23L247.88-53.23Q246.91-54.54 245.64-54.91L245.64-54.91L245.64-54.91Q246.98-55.36 247.95-56.52L247.95-56.52L247.95-56.52Q248.92-57.67 249.56-60.29L249.56-60.29L249.56-60.29Q250.19-62.90 250.49-67.27L250.49-67.27L250.49-67.27Q250.79-71.64 250.79-78.52L250.79-78.52L250.79-78.52Q250.79-81.51 249.82-83.37L249.82-83.37L249.82-83.37Q248.85-85.24 247.21-86.32L247.21-86.32L247.21-86.32Q245.56-87.41 243.36-87.78L243.36-87.78L243.36-87.78Q241.15-88.15 238.61-88.15L238.61-88.15L237.19-88.15L237.19-88.15Q237.57-89.95 237.94-92.30L237.94-92.30L237.94-92.30Q238.32-94.65 238.32-97.27L238.32-97.27L238.32-97.27Q238.32-100.03 237.98-102.87L237.98-102.87L237.98-102.87Q237.64-105.71 237.19-107.58L237.19-107.58L237.19-107.58Q240.11-106.53 245.49-105.75L245.49-105.75L245.49-105.75Q250.87-104.96 259.46-104.96L259.46-104.96L259.46-104.96Q265.06-104.96 270.36-105.60L270.36-105.60L270.36-105.60Q275.67-106.23 280.15-107.06L280.15-107.06L280.15-107.06Q280.15-103.47 281.65-98.91L281.65-98.91L281.65-98.91Q283.14-94.35 285.68-89.35L285.68-89.35L285.68-89.35Q288.22-84.34 291.47-79.15L291.47-79.15L291.47-79.15Q294.72-73.96 298.27-69.10L298.27-69.10L298.27-69.10Q301.82-64.25 305.36-59.95L305.36-59.95L305.36-59.95Q308.91-55.66 312.01-52.48L312.01-52.48L312.01-52.48Q315.11-49.31 317.43-47.44L317.43-47.44L317.43-47.44Q319.75-45.57 320.87-45.57L320.87-45.57L321.02-45.57L321.02-45.57Q321.09-45.57 321.20-45.53L321.20-45.53L321.20-45.53Q321.31-45.50 321.46-45.50L321.46-45.50L321.46-45.50Q322.06-47.74 322.40-51.17L322.40-51.17L322.40-51.17Q322.73-54.61 322.92-58.94L322.92-58.94L322.92-58.94Q323.11-63.28 323.18-68.24L323.18-68.24L323.18-68.24Q323.26-73.21 323.26-78.52L323.26-78.52L323.26-78.52Q323.26-81.51 322.29-83.37L322.29-83.37L322.29-83.37Q321.31-85.24 319.67-86.32L319.67-86.32L319.67-86.32Q318.03-87.41 315.82-87.78L315.82-87.78L315.82-87.78Q313.62-88.15 311.08-88.15L311.08-88.15L309.66-88.15L309.66-88.15Q310.03-89.95 310.41-92.30L310.41-92.30L310.41-92.30Q310.78-94.65 310.78-97.27L310.78-97.27L310.78-97.27Q310.78-100.03 310.45-102.87L310.45-102.87L310.45-102.87Q310.11-105.71 309.66-107.58L309.66-107.58L309.66-107.58Q311.08-107.06 314.14-106.61L314.14-106.61L314.14-106.61Q317.21-106.16 321.17-105.79L321.17-105.79L321.17-105.79Q325.13-105.41 329.57-105.19L329.57-105.19L329.57-105.19Q334.02-104.96 338.27-104.96L338.27-104.96L338.27-104.96Q342.61-104.96 347.05-105.19L347.05-105.19L347.05-105.19Q351.50-105.41 355.42-105.79L355.42-105.79L355.42-105.79Q359.34-106.16 362.33-106.61L362.33-106.61L362.33-106.61Q365.32-107.06 366.81-107.58L366.81-107.58L366.81-107.58Q366.36-105.71 366.03-102.87L366.03-102.87L366.03-102.87Q365.69-100.03 365.69-97.27L365.69-97.27L365.69-97.27Q365.69-94.65 366.06-92.30L366.06-92.30L366.06-92.30Q366.44-89.95 366.81-88.15L366.81-88.15L365.24-88.15L365.24-88.15Q362.55-88.15 360.31-87.78L360.31-87.78L360.31-87.78Q358.07-87.41 356.50-86.32L356.50-86.32L356.50-86.32Q354.93-85.24 354.07-83.37L354.07-83.37L354.07-83.37Q353.21-81.51 353.21-78.52L353.21-78.52L353.21-78.52Q353.21-71.64 353.63-67.16L353.63-67.16L353.63-67.16Q354.04-62.68 354.82-59.99L354.82-59.99L354.82-59.99Q355.61-57.30 356.69-56.18L356.69-56.18L356.69-56.18Q357.77-55.06 359.12-54.91L359.12-54.91L359.12-54.91Q357.85-54.24 356.88-52.82L356.88-52.82L356.88-52.82Q355.90-51.40 355.27-48.34L355.27-48.34L355.27-48.34Q354.63-45.27 354.30-40.19L354.30-40.19L354.30-40.19Q353.96-35.11 353.96-27.12L353.96-27.12L353.96-27.12Q353.96-21.74 354.41-17.29L354.41-17.29L354.41-17.29Q354.86-12.85 355.49-9.45L355.49-9.45L355.49-9.45Q356.13-6.05 356.88-3.70L356.88-3.70L356.88-3.70Q357.62-1.34 358.22 0L358.22 0L358.22 0Q356.35-0.60 354.04-0.97L354.04-0.97L354.04-0.97Q351.72-1.34 349.33-1.53L349.33-1.53L349.33-1.53Q346.94-1.72 344.70-1.79L344.70-1.79L344.70-1.79Q342.46-1.87 340.81-1.87L340.81-1.87L340.81-1.87Q339.02-1.87 336.78-1.79L336.78-1.79L336.78-1.79Q334.54-1.72 332.18-1.53L332.18-1.53L332.18-1.53Q329.83-1.34 327.44-0.97L327.44-0.97L327.44-0.97Q325.05-0.60 323.03 0L323.03 0L323.03 0Q323.03-3.74 320.90-8.89L320.90-8.89L320.90-8.89Q318.77-14.04 315.30-19.72L315.30-19.72L315.30-19.72Q311.83-25.40 307.46-31.23L307.46-31.23L307.46-31.23Q303.09-37.05 298.64-42.25L298.64-42.25L298.64-42.25Q294.20-47.44 290.09-51.59L290.09-51.59L290.09-51.59Q285.98-55.73 283.06-58.05L283.06-58.05L283.06-58.05Q281.65-54.69 281.20-47.51L281.20-47.51L281.20-47.51Q280.75-40.34 280.75-30.41L280.75-30.41L280.75-30.41Q280.75-27.19 281.46-25.06L281.46-25.06L281.46-25.06Q282.17-22.94 283.81-21.70L283.81-21.70L283.81-21.70Q285.46-20.47 288.03-19.95L288.03-19.95L288.03-19.95Q290.61-19.42 294.35-19.42L294.35-19.42L294.35-19.42Q293.97-17.63 293.60-15.13L293.60-15.13L293.60-15.13Q293.23-12.63 293.23-10.01L293.23-10.01L293.23-10.01Q293.23-7.17 293.56-4.52L293.56-4.52L293.56-4.52Q293.90-1.87 294.35 0L294.35 0L294.35 0Q292.18-0.45 288.89-0.78L288.89-0.78L288.89-0.78Q285.60-1.12 281.72-1.38L281.72-1.38L281.72-1.38Q277.84-1.64 273.73-1.76L273.73-1.76L273.73-1.76Q269.62-1.87 265.81-1.87L265.81-1.87L265.81-1.87Q262.00-1.87 257.85-1.76L257.85-1.76L257.85-1.76Q253.71-1.64 249.82-1.38L249.82-1.38L249.82-1.38Q245.94-1.12 242.61-0.78L242.61-0.78L242.61-0.78Q239.29-0.45 237.19 0ZM377.27 0L377.27 0L377.27 0Q377.72-1.87 378.05-4.52L378.05-4.52L378.05-4.52Q378.39-7.17 378.39-10.01L378.39-10.01L378.39-10.01Q378.39-12.63 378.02-15.13L378.02-15.13L378.02-15.13Q377.64-17.63 377.27-19.42L377.27-19.42L377.27-19.42Q380.63-19.42 383.17-19.95L383.17-19.95L383.17-19.95Q385.71-20.47 387.43-21.70L387.43-21.70L387.43-21.70Q389.15-22.94 390.01-25.06L390.01-25.06L390.01-25.06Q390.87-27.19 390.87-30.41L390.87-30.41L390.87-30.41Q390.87-36.68 390.53-41.16L390.53-41.16L390.53-41.16Q390.19-45.65 389.56-48.56L389.56-48.56L389.56-48.56Q388.92-51.47 387.95-53.00L387.95-53.00L387.95-53.00Q386.98-54.54 385.71-54.91L385.71-54.91L385.71-54.91Q387.06-55.36 388.03-56.52L388.03-56.52L388.03-56.52Q389.00-57.67 389.63-60.29L389.63-60.29L389.63-60.29Q390.27-62.90 390.57-67.27L390.57-67.27L390.57-67.27Q390.87-71.64 390.87-78.52L390.87-78.52L390.87-78.52Q390.87-81.51 389.90-83.37L389.90-83.37L389.90-83.37Q388.92-85.24 387.28-86.32L387.28-86.32L387.28-86.32Q385.64-87.41 383.43-87.78L383.43-87.78L383.43-87.78Q381.23-88.15 378.69-88.15L378.69-88.15L377.27-88.15L377.27-88.15Q377.64-89.95 378.02-92.30L378.02-92.30L378.02-92.30Q378.39-94.65 378.39-97.27L378.39-97.27L378.39-97.27Q378.39-100.03 378.05-102.87L378.05-102.87L378.05-102.87Q377.72-105.71 377.27-107.58L377.27-107.58L377.27-107.58Q378.69-107.06 381.75-106.61L381.75-106.61L381.75-106.61Q384.82-106.16 388.78-105.79L388.78-105.79L388.78-105.79Q392.73-105.41 397.18-105.19L397.18-105.19L397.18-105.19Q401.63-104.96 405.88-104.96L405.88-104.96L405.88-104.96Q410.22-104.96 414.66-105.19L414.66-105.19L414.66-105.19Q419.11-105.41 423.03-105.79L423.03-105.79L423.03-105.79Q426.95-106.16 429.94-106.61L429.94-106.61L429.94-106.61Q432.93-107.06 434.42-107.58L434.42-107.58L434.42-107.58Q433.97-105.71 433.64-102.87L433.64-102.87L433.64-102.87Q433.30-100.03 433.30-97.27L433.30-97.27L433.30-97.27Q433.30-94.65 433.67-92.30L433.67-92.30L433.67-92.30Q434.05-89.95 434.42-88.15L434.42-88.15L432.85-88.15L432.85-88.15Q430.16-88.15 427.92-87.78L427.92-87.78L427.92-87.78Q425.68-87.41 424.11-86.32L424.11-86.32L424.11-86.32Q422.54-85.24 421.68-83.37L421.68-83.37L421.68-83.37Q420.82-81.51 420.82-78.52L420.82-78.52L420.82-78.52Q420.82-73.14 421.01-69.37L421.01-69.37L421.01-69.37Q421.20-65.59 421.57-62.98L421.57-62.98L421.57-62.98Q423.22-62.46 425.61-62.46L425.61-62.46L425.61-62.46Q426.95-62.46 428.41-62.46L428.41-62.46L428.41-62.46Q429.86-62.46 431.58-62.53L431.58-62.53L431.58-62.53Q433.30-62.60 435.43-62.64L435.43-62.64L435.43-62.64Q437.56-62.68 440.32-62.83L440.32-62.83L440.32-62.83Q444.28-65.22 447.53-68.21L447.53-68.21L447.53-68.21Q450.78-71.20 453.06-74.07L453.06-74.07L453.06-74.07Q455.34-76.95 456.61-79.41L456.61-79.41L456.61-79.41Q457.88-81.88 457.88-83.22L457.88-83.22L457.88-83.22Q457.88-84.72 457.43-85.69L457.43-85.69L457.43-85.69Q456.98-86.66 455.82-87.22L455.82-87.22L455.82-87.22Q454.67-87.78 452.58-87.97L452.58-87.97L452.58-87.97Q450.48-88.15 447.27-88.15L447.27-88.15L447.27-88.15Q447.87-89.95 448.13-92.67L448.13-92.67L448.13-92.67Q448.39-95.40 448.39-97.72L448.39-97.72L448.39-97.72Q448.39-100.18 448.09-102.95L448.09-102.95L448.09-102.95Q447.79-105.71 447.12-107.58L447.12-107.58L447.12-107.58Q448.62-106.91 451.68-106.42L451.68-106.42L451.68-106.42Q454.74-105.93 458.51-105.60L458.51-105.60L458.51-105.60Q462.29-105.26 466.47-105.11L466.47-105.11L466.47-105.11Q470.65-104.96 474.39-104.96L474.39-104.96L474.39-104.96Q477.68-104.96 481.34-105.19L481.34-105.19L481.34-105.19Q485.00-105.41 488.40-105.82L488.40-105.82L488.40-105.82Q491.80-106.23 494.64-106.68L494.64-106.68L494.64-106.68Q497.47-107.13 499.19-107.58L499.19-107.58L499.19-107.58Q498.74-106.68 498.52-105.37L498.52-105.37L498.52-105.37Q498.30-104.07 498.18-102.61L498.18-102.61L498.18-102.61Q498.07-101.15 498.07-99.66L498.07-99.66L498.07-99.66Q498.07-98.17 498.07-96.97L498.07-96.97L498.07-96.97Q498.07-94.65 498.33-92.30L498.33-92.30L498.33-92.30Q498.59-89.95 499.19-88.15L499.19-88.15L499.19-88.15Q495.98-88.15 493.14-87.00L493.14-87.00L493.14-87.00Q490.30-85.84 487.95-83.97L487.95-83.97L487.95-83.97Q485.60-82.10 483.73-79.68L483.73-79.68L483.73-79.68Q481.86-77.25 480.59-74.67L480.59-74.67L480.59-74.67Q479.32-72.09 478.65-69.59L478.65-69.59L478.65-69.59Q477.98-67.09 477.98-65.07L477.98-65.07L477.98-65.07Q475.73-64.55 473.42-63.58L473.42-63.58L473.42-63.58Q471.10-62.60 468.86-61.41L468.86-61.41L468.86-61.41Q466.62-60.21 464.53-58.79L464.53-58.79L464.53-58.79Q462.44-57.38 460.72-55.96L460.72-55.96L460.72-55.96Q463.11-53.56 466.99-51.40L466.99-51.40L466.99-51.40Q470.88-49.23 474.95-47.55L474.95-47.55L474.95-47.55Q479.02-45.87 482.64-44.86L482.64-44.86L482.64-44.86Q486.27-43.85 488.21-43.85L488.21-43.85L488.21-43.85Q487.76-41.61 487.76-39.37L487.76-39.37L487.76-39.37Q487.76-35.41 488.99-31.79L488.99-31.79L488.99-31.79Q490.23-28.16 492.39-25.44L492.39-25.44L492.39-25.44Q494.56-22.71 497.47-21.07L497.47-21.07L497.47-21.07Q500.39-19.42 503.75-19.42L503.75-19.42L503.75-19.42Q503.15-17.63 503.04-15.13L503.04-15.13L503.04-15.13Q502.93-12.63 502.93-10.01L502.93-10.01L502.93-10.01Q502.93-7.17 503.04-4.52L503.04-4.52L503.04-4.52Q503.15-1.87 503.82 0L503.82 0L503.82 0Q503.08-0.30 500.61-0.64L500.61-0.64L500.61-0.64Q498.15-0.97 494.97-1.23L494.97-1.23L494.97-1.23Q491.80-1.49 488.43-1.68L488.43-1.68L488.43-1.68Q485.07-1.87 482.46-1.87L482.46-1.87L482.46-1.87Q480.67-1.87 478.24-1.83L478.24-1.83L478.24-1.83Q475.81-1.79 473.08-1.72L473.08-1.72L473.08-1.72Q470.36-1.64 467.59-1.53L467.59-1.53L467.59-1.53Q464.83-1.42 462.40-1.20L462.40-1.20L462.40-1.20Q459.97-0.97 458.10-0.67L458.10-0.67L458.10-0.67Q456.24-0.37 455.34 0L455.34 0L455.34 0Q456.16-1.57 456.53-3.62L456.53-3.62L456.53-3.62Q456.91-5.68 456.91-7.84L456.91-7.84L456.91-7.84Q456.91-11.36 456.05-14.61L456.05-14.61L456.05-14.61Q455.19-17.85 453.70-19.42L453.70-19.42L453.70-19.42Q455.64-20.54 456.80-21.85L456.80-21.85L456.80-21.85Q457.95-23.16 458.55-24.65L458.55-24.65L458.55-24.65Q459.15-26.15 459.34-27.94L459.34-27.94L459.34-27.94Q459.52-29.73 459.52-31.75L459.52-31.75L459.52-31.75Q459.52-34.74 457.58-37.76L457.58-37.76L457.58-37.76Q455.64-40.79 452.50-43.14L452.50-43.14L452.50-43.14Q449.36-45.50 445.44-46.99L445.44-46.99L445.44-46.99Q441.52-48.48 437.48-48.48L437.48-48.48L437.48-48.48Q436.51-48.48 435.28-48.52L435.28-48.52L435.28-48.52Q434.05-48.56 432.55-48.56L432.55-48.56L432.55-48.56Q430.01-48.56 427.17-48.22L427.17-48.22L427.17-48.22Q424.34-47.89 421.72-46.77L421.72-46.77L421.72-46.77Q420.82-41.01 420.82-30.41L420.82-30.41L420.82-30.41Q420.82-27.19 421.53-25.06L421.53-25.06L421.53-25.06Q422.24-22.94 423.89-21.70L423.89-21.70L423.89-21.70Q425.53-20.47 428.11-19.95L428.11-19.95L428.11-19.95Q430.69-19.42 434.42-19.42L434.42-19.42L434.42-19.42Q434.05-17.63 433.67-15.13L433.67-15.13L433.67-15.13Q433.30-12.63 433.30-10.01L433.30-10.01L433.30-10.01Q433.30-7.17 433.64-4.52L433.64-4.52L433.64-4.52Q433.97-1.87 434.42 0L434.42 0L434.42 0Q432.25-0.45 428.97-0.78L428.97-0.78L428.97-0.78Q425.68-1.12 421.80-1.38L421.80-1.38L421.80-1.38Q417.91-1.64 413.80-1.76L413.80-1.76L413.80-1.76Q409.69-1.87 405.88-1.87L405.88-1.87L405.88-1.87Q402.07-1.87 397.93-1.76L397.93-1.76L397.93-1.76Q393.78-1.64 389.90-1.38L389.90-1.38L389.90-1.38Q386.01-1.12 382.69-0.78L382.69-0.78L382.69-0.78Q379.36-0.45 377.27 0ZM517.65 0L517.65 0L517.65 0Q518.09-1.87 518.43-4.52L518.43-4.52L518.43-4.52Q518.77-7.17 518.77-10.01L518.77-10.01L518.77-10.01Q518.77-12.63 518.39-15.13L518.39-15.13L518.39-15.13Q518.02-17.63 517.65-19.42L517.65-19.42L517.65-19.42Q521.01-19.42 523.55-19.95L523.55-19.95L523.55-19.95Q526.09-20.47 527.81-21.70L527.81-21.70L527.81-21.70Q529.52-22.94 530.38-25.06L530.38-25.06L530.38-25.06Q531.24-27.19 531.24-30.41L531.24-30.41L531.24-30.41Q531.24-36.68 530.91-41.16L530.91-41.16L530.91-41.16Q530.57-45.65 529.93-48.56L529.93-48.56L529.93-48.56Q529.30-51.47 528.33-53.00L528.33-53.00L528.33-53.00Q527.36-54.54 526.09-54.91L526.09-54.91L526.09-54.91Q527.43-55.36 528.40-56.33L528.40-56.33L528.40-56.33Q529.37-57.30 530.01-59.65L530.01-59.65L530.01-59.65Q530.64-62.01 530.94-66.15L530.94-66.15L530.94-66.15Q531.24-70.30 531.24-77.17L531.24-77.17L531.24-77.17Q531.24-80.38 530.38-82.51L530.38-82.51L530.38-82.51Q529.52-84.64 527.81-85.88L527.81-85.88L527.81-85.88Q526.09-87.11 523.55-87.63L523.55-87.63L523.55-87.63Q521.01-88.15 517.65-88.15L517.65-88.15L517.65-88.15Q518.02-89.95 518.39-92.45L518.39-92.45L518.39-92.45Q518.77-94.95 518.77-97.57L518.77-97.57L518.77-97.57Q518.77-100.41 518.43-103.06L518.43-103.06L518.43-103.06Q518.09-105.71 517.65-107.58L517.65-107.58L517.65-107.58Q519.14-107.20 522.80-106.87L522.80-106.87L522.80-106.87Q526.46-106.53 531.32-106.23L531.32-106.23L531.32-106.23Q536.17-105.93 541.70-105.71L541.70-105.71L541.70-105.71Q547.23-105.49 552.50-105.30L552.50-105.30L552.50-105.30Q557.76-105.11 562.21-105.04L562.21-105.04L562.21-105.04Q566.65-104.96 569.34-104.96L569.34-104.96L569.34-104.96Q572.03-104.96 576.22-105.04L576.22-105.04L576.22-105.04Q580.40-105.11 585.22-105.30L585.22-105.30L585.22-105.30Q590.04-105.49 595.08-105.71L595.08-105.71L595.08-105.71Q600.12-105.93 604.57-106.23L604.57-106.23L604.57-106.23Q609.01-106.53 612.41-106.87L612.41-106.87L612.41-106.87Q615.81-107.20 617.30-107.58L617.30-107.58L617.30-107.58Q616.71-104.44 616.07-99.62L616.07-99.62L616.07-99.62Q615.44-94.80 615.44-89.42L615.44-89.42L615.44-89.42Q615.44-86.29 615.66-83.26L615.66-83.26L615.66-83.26Q615.88-80.24 616.15-77.73L616.15-77.73L616.15-77.73Q616.41-75.23 616.74-73.36L616.74-73.36L616.74-73.36Q617.08-71.49 617.30-70.60L617.30-70.60L617.30-70.60Q616.18-71.05 614.50-71.38L614.50-71.38L614.50-71.38Q612.82-71.72 610.88-71.98L610.88-71.98L610.88-71.98Q608.94-72.24 606.85-72.35L606.85-72.35L606.85-72.35Q604.75-72.47 602.81-72.47L602.81-72.47L602.81-72.47Q599.37-72.47 595.94-72.05L595.94-72.05L595.94-72.05Q592.50-71.64 589.36-70.60L589.36-70.60L589.36-70.60Q589.89-72.17 590.22-74.41L590.22-74.41L590.22-74.41Q590.56-76.65 590.56-78.97L590.56-78.97L590.56-78.97Q590.56-82.78 589.25-85.05L589.25-85.05L589.25-85.05Q587.94-87.33 585.93-88.53L585.93-88.53L585.93-88.53Q583.91-89.72 581.52-90.06L581.52-90.06L581.52-90.06Q579.13-90.40 576.96-90.40L576.96-90.40L576.96-90.40Q575.24-90.40 573.34-90.28L573.34-90.28L573.34-90.28Q571.43-90.17 569.45-89.76L569.45-89.76L569.45-89.76Q567.47-89.35 565.53-88.64L565.53-88.64L565.53-88.64Q563.59-87.93 561.95-86.73L561.95-86.73L561.95-86.73Q561.65-85.02 561.42-82.78L561.42-82.78L561.42-82.78Q561.20-80.53 561.20-77.17L561.20-77.17L561.20-77.17Q561.20-72.17 561.39-69.37L561.39-69.37L561.39-69.37Q561.57-66.56 561.87-65.07L561.87-65.07L561.87-65.07Q563.89-64.17 566.58-63.80L566.58-63.80L566.58-63.80Q569.27-63.43 572.11-63.43L572.11-63.43L572.11-63.43Q576.36-63.43 580.17-64.10L580.17-64.10L580.17-64.10Q583.98-64.77 585.70-65.67L585.70-65.67L585.70-65.67Q585.11-64.02 584.84-61.11L584.84-61.11L584.84-61.11Q584.58-58.20 584.58-54.98L584.58-54.98L584.58-54.98Q584.58-53.19 584.66-51.44L584.66-51.44L584.66-51.44Q584.73-49.68 584.92-48.22L584.92-48.22L584.92-48.22Q585.11-46.77 585.29-45.68L585.29-45.68L585.29-45.68Q585.48-44.60 585.70-44.08L585.70-44.08L585.70-44.08Q585.03-44.45 583.54-44.86L583.54-44.86L583.54-44.86Q582.04-45.27 580.06-45.65L580.06-45.65L580.06-45.65Q578.08-46.02 575.73-46.28L575.73-46.28L575.73-46.28Q573.38-46.54 570.91-46.54L570.91-46.54L570.91-46.54Q568.37-46.54 566.06-46.24L566.06-46.24L566.06-46.24Q563.74-45.94 561.87-45.12L561.87-45.12L561.87-45.12Q561.72-44.23 561.61-43.07L561.61-43.07L561.61-43.07Q561.50-41.91 561.39-40.16L561.39-40.16L561.39-40.16Q561.27-38.40 561.24-36.01L561.24-36.01L561.24-36.01Q561.20-33.62 561.20-30.41L561.20-30.41L561.20-30.41Q561.20-26.37 561.50-23.87L561.50-23.87L561.50-23.87Q561.80-21.37 562.17-19.57L562.17-19.57L562.17-19.57Q563.96-18.60 565.98-17.97L565.98-17.97L565.98-17.97Q568.00-17.33 570.05-17.00L570.05-17.00L570.05-17.00Q572.11-16.66 574.05-16.55L574.05-16.55L574.05-16.55Q575.99-16.44 577.71-16.44L577.71-16.44L577.71-16.44Q579.88-16.44 582.15-17.00L582.15-17.00L582.15-17.00Q584.43-17.56 586.30-19.09L586.30-19.09L586.30-19.09Q588.17-20.62 589.36-23.35L589.36-23.35L589.36-23.35Q590.56-26.07 590.56-30.33L590.56-30.33L590.56-30.33Q590.56-33.02 590.22-35.64L590.22-35.64L590.22-35.64Q589.89-38.25 589.36-39.97L589.36-39.97L589.36-39.97Q592.50-38.92 595.94-38.51L595.94-38.51L595.94-38.51Q599.37-38.10 602.81-38.10L602.81-38.10L602.81-38.10Q604.75-38.10 606.85-38.21L606.85-38.21L606.85-38.21Q608.94-38.32 610.88-38.59L610.88-38.59L610.88-38.59Q612.82-38.85 614.50-39.18L614.50-39.18L614.50-39.18Q616.18-39.52 617.30-39.97L617.30-39.97L617.30-39.97Q617.08-39.00 616.74-36.98L616.74-36.98L616.74-36.98Q616.41-34.96 616.15-32.24L616.15-32.24L616.15-32.24Q615.88-29.51 615.66-26.26L615.66-26.26L615.66-26.26Q615.44-23.01 615.44-19.65L615.44-19.65L615.44-19.65Q615.44-16.73 615.62-13.93L615.62-13.93L615.62-13.93Q615.81-11.13 616.07-8.59L616.07-8.59L616.07-8.59Q616.33-6.05 616.67-3.85L616.67-3.85L616.67-3.85Q617.01-1.64 617.30 0L617.30 0L617.30 0Q615.81-0.30 612.41-0.56L612.41-0.56L612.41-0.56Q609.01-0.82 604.57-1.01L604.57-1.01L604.57-1.01Q600.12-1.20 595.08-1.38L595.08-1.38L595.08-1.38Q590.04-1.57 585.22-1.68L585.22-1.68L585.22-1.68Q580.40-1.79 576.22-1.83L576.22-1.83L576.22-1.83Q572.03-1.87 569.34-1.87L569.34-1.87L569.34-1.87Q566.65-1.87 562.21-1.83L562.21-1.83L562.21-1.83Q557.76-1.79 552.50-1.68L552.50-1.68L552.50-1.68Q547.23-1.57 541.70-1.38L541.70-1.38L541.70-1.38Q536.17-1.20 531.32-1.01L531.32-1.01L531.32-1.01Q526.46-0.82 522.80-0.56L522.80-0.56L522.80-0.56Q519.14-0.30 517.65 0ZM632.17 0L632.17 0L632.17 0Q632.62-1.87 632.96-4.52L632.96-4.52L632.96-4.52Q633.29-7.17 633.29-10.01L633.29-10.01L633.29-10.01Q633.29-12.63 632.92-15.13L632.92-15.13L632.92-15.13Q632.54-17.63 632.17-19.42L632.17-19.42L632.17-19.42Q635.53-19.42 638.07-19.95L638.07-19.95L638.07-19.95Q640.61-20.47 642.33-21.70L642.33-21.70L642.33-21.70Q644.05-22.94 644.91-25.06L644.91-25.06L644.91-25.06Q645.77-27.19 645.77-30.41L645.77-30.41L645.77-30.41Q645.77-37.20 645.43-41.76L645.43-41.76L645.43-41.76Q645.10-46.32 644.46-49.12L644.46-49.12L644.46-49.12Q643.83-51.92 642.85-53.23L642.85-53.23L642.85-53.23Q641.88-54.54 640.61-54.91L640.61-54.91L640.61-54.91Q641.96-55.36 642.93-56.52L642.93-56.52L642.93-56.52Q643.90-57.67 644.53-60.29L644.53-60.29L644.53-60.29Q645.17-62.90 645.47-67.27L645.47-67.27L645.47-67.27Q645.77-71.64 645.77-78.52L645.77-78.52L645.77-78.52Q645.77-81.51 644.80-83.37L644.80-83.37L644.80-83.37Q643.83-85.24 642.18-86.32L642.18-86.32L642.18-86.32Q640.54-87.41 638.33-87.78L638.33-87.78L638.33-87.78Q636.13-88.15 633.59-88.15L633.59-88.15L632.17-88.15L632.17-88.15Q632.54-89.95 632.92-92.30L632.92-92.30L632.92-92.30Q633.29-94.65 633.29-97.27L633.29-97.27L633.29-97.27Q633.29-100.03 632.96-102.87L632.96-102.87L632.96-102.87Q632.62-105.71 632.17-107.58L632.17-107.58L632.17-107.58Q635.08-106.53 640.46-105.75L640.46-105.75L640.46-105.75Q645.84-104.96 654.43-104.96L654.43-104.96L654.43-104.96Q660.04-104.96 665.34-105.60L665.34-105.60L665.34-105.60Q670.65-106.23 675.13-107.06L675.13-107.06L675.13-107.06Q675.13-103.47 676.62-98.91L676.62-98.91L676.62-98.91Q678.12-94.35 680.66-89.35L680.66-89.35L680.66-89.35Q683.20-84.34 686.45-79.15L686.45-79.15L686.45-79.15Q689.70-73.96 693.24-69.10L693.24-69.10L693.24-69.10Q696.79-64.25 700.34-59.95L700.34-59.95L700.34-59.95Q703.89-55.66 706.99-52.48L706.99-52.48L706.99-52.48Q710.09-49.31 712.41-47.44L712.41-47.44L712.41-47.44Q714.72-45.57 715.84-45.57L715.84-45.57L715.99-45.57L715.99-45.57Q716.07-45.57 716.18-45.53L716.18-45.53L716.18-45.53Q716.29-45.50 716.44-45.50L716.44-45.50L716.44-45.50Q717.04-47.74 717.37-51.17L717.37-51.17L717.37-51.17Q717.71-54.61 717.90-58.94L717.90-58.94L717.90-58.94Q718.08-63.28 718.16-68.24L718.16-68.24L718.16-68.24Q718.23-73.21 718.23-78.52L718.23-78.52L718.23-78.52Q718.23-81.51 717.26-83.37L717.26-83.37L717.26-83.37Q716.29-85.24 714.65-86.32L714.65-86.32L714.65-86.32Q713.00-87.41 710.80-87.78L710.80-87.78L710.80-87.78Q708.60-88.15 706.06-88.15L706.06-88.15L704.64-88.15L704.64-88.15Q705.01-89.95 705.38-92.30L705.38-92.30L705.38-92.30Q705.76-94.65 705.76-97.27L705.76-97.27L705.76-97.27Q705.76-100.03 705.42-102.87L705.42-102.87L705.42-102.87Q705.08-105.71 704.64-107.58L704.64-107.58L704.64-107.58Q706.06-107.06 709.12-106.61L709.12-106.61L709.12-106.61Q712.18-106.16 716.14-105.79L716.14-105.79L716.14-105.79Q720.10-105.41 724.55-105.19L724.55-105.19L724.55-105.19Q728.99-104.96 733.25-104.96L733.25-104.96L733.25-104.96Q737.58-104.96 742.03-105.19L742.03-105.19L742.03-105.19Q746.47-105.41 750.39-105.79L750.39-105.79L750.39-105.79Q754.32-106.16 757.31-106.61L757.31-106.61L757.31-106.61Q760.29-107.06 761.79-107.58L761.79-107.58L761.79-107.58Q761.34-105.71 761.00-102.87L761.00-102.87L761.00-102.87Q760.67-100.03 760.67-97.27L760.67-97.27L760.67-97.27Q760.67-94.65 761.04-92.30L761.04-92.30L761.04-92.30Q761.41-89.95 761.79-88.15L761.79-88.15L760.22-88.15L760.22-88.15Q757.53-88.15 755.29-87.78L755.29-87.78L755.29-87.78Q753.05-87.41 751.48-86.32L751.48-86.32L751.48-86.32Q749.91-85.24 749.05-83.37L749.05-83.37L749.05-83.37Q748.19-81.51 748.19-78.52L748.19-78.52L748.19-78.52Q748.19-71.64 748.60-67.16L748.60-67.16L748.60-67.16Q749.01-62.68 749.80-59.99L749.80-59.99L749.80-59.99Q750.58-57.30 751.66-56.18L751.66-56.18L751.66-56.18Q752.75-55.06 754.09-54.91L754.09-54.91L754.09-54.91Q752.82-54.24 751.85-52.82L751.85-52.82L751.85-52.82Q750.88-51.40 750.25-48.34L750.25-48.34L750.25-48.34Q749.61-45.27 749.27-40.19L749.27-40.19L749.27-40.19Q748.94-35.11 748.94-27.12L748.94-27.12L748.94-27.12Q748.94-21.74 749.39-17.29L749.39-17.29L749.39-17.29Q749.83-12.85 750.47-9.45L750.47-9.45L750.47-9.45Q751.10-6.05 751.85-3.70L751.85-3.70L751.85-3.70Q752.60-1.34 753.20 0L753.20 0L753.20 0Q751.33-0.60 749.01-0.97L749.01-0.97L749.01-0.97Q746.70-1.34 744.31-1.53L744.31-1.53L744.31-1.53Q741.92-1.72 739.67-1.79L739.67-1.79L739.67-1.79Q737.43-1.87 735.79-1.87L735.79-1.87L735.79-1.87Q734.00-1.87 731.76-1.79L731.76-1.79L731.76-1.79Q729.51-1.72 727.16-1.53L727.16-1.53L727.16-1.53Q724.81-1.34 722.42-0.97L722.42-0.97L722.42-0.97Q720.03-0.60 718.01 0L718.01 0L718.01 0Q718.01-3.74 715.88-8.89L715.88-8.89L715.88-8.89Q713.75-14.04 710.28-19.72L710.28-19.72L710.28-19.72Q706.80-25.40 702.43-31.23L702.43-31.23L702.43-31.23Q698.06-37.05 693.62-42.25L693.62-42.25L693.62-42.25Q689.17-47.44 685.06-51.59L685.06-51.59L685.06-51.59Q680.95-55.73 678.04-58.05L678.04-58.05L678.04-58.05Q676.62-54.69 676.17-47.51L676.17-47.51L676.17-47.51Q675.73-40.34 675.73-30.41L675.73-30.41L675.73-30.41Q675.73-27.19 676.43-25.06L676.43-25.06L676.43-25.06Q677.14-22.94 678.79-21.70L678.79-21.70L678.79-21.70Q680.43-20.47 683.01-19.95L683.01-19.95L683.01-19.95Q685.59-19.42 689.32-19.42L689.32-19.42L689.32-19.42Q688.95-17.63 688.57-15.13L688.57-15.13L688.57-15.13Q688.20-12.63 688.20-10.01L688.20-10.01L688.20-10.01Q688.20-7.17 688.54-4.52L688.54-4.52L688.54-4.52Q688.87-1.87 689.32 0L689.32 0L689.32 0Q687.16-0.45 683.87-0.78L683.87-0.78L683.87-0.78Q680.58-1.12 676.70-1.38L676.70-1.38L676.70-1.38Q672.81-1.64 668.70-1.76L668.70-1.76L668.70-1.76Q664.59-1.87 660.78-1.87L660.78-1.87L660.78-1.87Q656.97-1.87 652.83-1.76L652.83-1.76L652.83-1.76Q648.68-1.64 644.80-1.38L644.80-1.38L644.80-1.38Q640.91-1.12 637.59-0.78L637.59-0.78L637.59-0.78Q634.26-0.45 632.17 0Z" fill="#000000"></path></g></g><style>text {
  font-size: 64px;
  font-family: Arial Black;
  dominant-baseline: central;
  text-anchor: middle;
}</style></svg>